<svg width="230" height="53" viewBox="0 0 230 53" fill="none" xmlns="http://www.w3.org/2000/svg">
<g clip-path="url(#clip0_5_129)">
<path fill-rule="evenodd" clip-rule="evenodd" d="M12.2139 45.8678L37.135 45.916L16.5494 6.12292L4.02332 31.519C4.76238 31.3153 5.54206 31.2063 6.34735 31.2063C7.72614 31.2063 9.02899 31.5255 10.1839 32.0926L10.2475 32.0922L14.3468 24.1022L23.7431 41.6277L14.7296 41.6021C14.3353 43.2662 13.4417 44.7414 12.2135 45.8674L12.2139 45.8678Z" fill="#062B21"/>
<path fill-rule="evenodd" clip-rule="evenodd" d="M42.1823 5.96571C50.0091 5.99481 57.5993 12.755 57.5993 21.1301C57.5993 29.5057 50.6969 36.295 42.1823 36.295C40.603 36.295 39.0794 36.0609 37.6446 35.6271L22.3463 5.89102L42.1823 5.96528V5.96571ZM40.4229 18.0104C42.018 18.016 43.565 19.394 43.565 21.1006C43.565 22.8072 42.1584 24.1912 40.4229 24.1912C40.101 24.1912 39.7907 24.1435 39.4984 24.0553L36.381 17.9956L40.4233 18.0108L40.4229 18.0104Z" fill="#062B21"/>
<path d="M6.34694 45.9165C9.85225 45.9165 12.6939 43.1214 12.6939 39.6735C12.6939 36.2256 9.85225 33.4306 6.34694 33.4306C2.84162 33.4306 0 36.2256 0 39.6735C0 43.1214 2.84162 45.9165 6.34694 45.9165Z" fill="#FFE314"/>
</g>
<path d="M61.8675 29L71.5315 7.52436H75.4585L85.1532 29H80.9808L72.6667 9.64124H74.262L65.9785 29H61.8675ZM66.316 24.0299L67.3898 20.9006H78.9866L80.0604 24.0299H66.316ZM87.8844 29V7.52436H96.7201C98.6222 7.52436 100.248 7.83115 101.598 8.44474C102.969 9.05833 104.022 9.93781 104.758 11.0832C105.494 12.2285 105.863 13.5887 105.863 15.1635C105.863 16.7384 105.494 18.0986 104.758 19.2439C104.022 20.3893 102.969 21.2688 101.598 21.8824C100.248 22.4959 98.6222 22.8027 96.7201 22.8027H90.0933L91.8728 20.9313V29H87.8844ZM91.8728 21.3608L90.0933 19.428H96.536C98.295 19.428 99.6142 19.0598 100.494 18.3235C101.394 17.5668 101.844 16.5134 101.844 15.1635C101.844 13.7932 101.394 12.7399 100.494 12.0036C99.6142 11.2673 98.295 10.8991 96.536 10.8991H90.0933L91.8728 8.93561V21.3608ZM124.94 7.52436H128.928V29H124.94V7.52436ZM113.834 29H109.845V7.52436H113.834V29ZM125.247 19.7962H113.496V16.3907H125.247V19.7962ZM131.645 29L141.309 7.52436H145.236L154.931 29H150.759L142.445 9.64124H144.04L135.756 29H131.645ZM136.094 24.0299L137.168 20.9006H148.765L149.838 24.0299H136.094ZM157.662 29V7.52436H160.945L170.333 23.2016H168.615L177.849 7.52436H181.132L181.163 29H177.389L177.359 13.4455H178.156L170.302 26.5456H168.523L160.546 13.4455H161.467V29H157.662ZM190.645 16.4521H201.322V19.7348H190.645V16.4521ZM190.952 25.6559H203.07V29H186.964V7.52436H202.641V10.8684H190.952V25.6559ZM207.516 29V7.52436H216.904C219.236 7.52436 221.281 7.97432 223.04 8.87425C224.799 9.77419 226.17 11.0218 227.151 12.6172C228.133 14.2125 228.624 16.0942 228.624 18.2622C228.624 20.4097 228.133 22.2914 227.151 23.9072C226.17 25.5025 224.799 26.7502 223.04 27.6501C221.281 28.55 219.236 29 216.904 29H207.516ZM211.505 25.6253H216.72C218.336 25.6253 219.727 25.3185 220.893 24.7049C222.079 24.0913 222.989 23.2323 223.623 22.1278C224.278 21.0233 224.605 19.7348 224.605 18.2622C224.605 16.7691 224.278 15.4806 223.623 14.3966C222.989 13.2921 222.079 12.4331 220.893 11.8195C219.727 11.2059 218.336 10.8991 216.72 10.8991H211.505V25.6253Z" fill="#062B21"/>
<path d="M103.978 49L106.341 37.1849H110.729C112.113 37.1849 113.182 37.4887 113.936 38.0963C114.69 38.704 115.067 39.5535 115.067 40.645C115.067 41.6465 114.842 42.5073 114.392 43.2275C113.953 43.9364 113.317 44.4821 112.484 44.8647C111.652 45.236 110.667 45.4217 109.531 45.4217H105.649L106.543 44.6115L105.665 49H103.978ZM106.509 44.7972L105.919 43.9533H109.564C110.768 43.9533 111.702 43.6888 112.366 43.16C113.041 42.6198 113.379 41.8322 113.379 40.7969C113.379 40.088 113.137 39.5535 112.653 39.1934C112.169 38.8334 111.477 38.6533 110.577 38.6533H107.016L107.91 37.7925L106.509 44.7972ZM115.61 49L117.382 40.0543H118.935L118.428 42.6536L118.259 42.0122C118.676 41.2583 119.205 40.7294 119.846 40.4256C120.487 40.1218 121.281 39.9699 122.226 39.9699L121.922 41.5396C121.855 41.5283 121.787 41.5227 121.72 41.5227C121.652 41.5227 121.579 41.5227 121.5 41.5227C120.611 41.5227 119.874 41.7646 119.289 42.2485C118.715 42.7324 118.327 43.4919 118.124 44.5271L117.23 49H115.61ZM122.417 49L124.189 40.0543H125.81L124.037 49H122.417ZM125.472 38.3326C125.168 38.3326 124.921 38.237 124.729 38.0457C124.549 37.8544 124.459 37.6237 124.459 37.3537C124.459 37.0386 124.566 36.7742 124.78 36.5604C124.994 36.3353 125.275 36.2228 125.624 36.2228C125.917 36.2228 126.159 36.3184 126.35 36.5097C126.552 36.6898 126.654 36.9092 126.654 37.168C126.654 37.5168 126.547 37.7981 126.333 38.0119C126.119 38.2257 125.832 38.3326 125.472 38.3326ZM133.478 39.9699C134.265 39.9699 134.924 40.1274 135.452 40.4425C135.981 40.7575 136.347 41.2189 136.55 41.8265C136.763 42.4229 136.786 43.1431 136.617 43.987L135.621 49H134.001L134.997 43.987C135.166 43.1768 135.087 42.5467 134.76 42.0966C134.434 41.6465 133.849 41.4214 133.005 41.4214C132.139 41.4214 131.418 41.6577 130.845 42.1304C130.271 42.5917 129.888 43.3062 129.697 44.274L128.752 49H127.131L128.904 40.0543H130.456L129.95 42.6198L129.646 41.9278C130.074 41.2527 130.614 40.7575 131.267 40.4425C131.93 40.1274 132.667 39.9699 133.478 39.9699ZM141.692 49.1013C141.152 49.1013 140.685 48.9831 140.291 48.7468C139.908 48.5105 139.633 48.1729 139.464 47.7341C139.306 47.2952 139.284 46.7776 139.396 46.1812L141.017 38.0963H142.637L141.017 46.1475C140.938 46.6313 140.983 47.0196 141.152 47.3121C141.332 47.5934 141.664 47.7341 142.148 47.7341C142.373 47.7341 142.598 47.7003 142.823 47.6328C143.048 47.5541 143.25 47.4472 143.43 47.3121L143.768 48.5443C143.464 48.7581 143.127 48.9044 142.755 48.9831C142.395 49.0619 142.041 49.1013 141.692 49.1013ZM138.839 41.3877L139.093 40.0543H144.814L144.544 41.3877H138.839ZM148.428 49.1013C147.674 49.1013 146.959 49.0056 146.284 48.8143C145.62 48.6118 145.108 48.3642 144.748 48.0717L145.474 46.7889C145.823 47.0589 146.273 47.2784 146.824 47.4472C147.387 47.6159 147.972 47.7003 148.58 47.7003C149.356 47.7003 149.941 47.5822 150.335 47.3459C150.729 47.1096 150.926 46.7889 150.926 46.3838C150.926 46.0912 150.808 45.8718 150.571 45.7255C150.335 45.568 150.025 45.4498 149.643 45.3711C149.272 45.281 148.872 45.1967 148.444 45.1179C148.017 45.0279 147.617 44.9041 147.246 44.7466C146.875 44.589 146.565 44.364 146.318 44.0714C146.081 43.7676 145.963 43.3681 145.963 42.873C145.963 42.2766 146.132 41.7646 146.47 41.337C146.807 40.8982 147.28 40.5606 147.887 40.3243C148.495 40.088 149.204 39.9699 150.014 39.9699C150.599 39.9699 151.173 40.043 151.736 40.1893C152.31 40.3243 152.777 40.5212 153.137 40.7801L152.495 42.0628C152.124 41.804 151.708 41.624 151.246 41.5227C150.785 41.4102 150.324 41.3539 149.862 41.3539C149.108 41.3539 148.54 41.4833 148.158 41.7421C147.775 41.9897 147.584 42.3048 147.584 42.6873C147.584 42.9799 147.702 43.2106 147.938 43.3794C148.174 43.5369 148.478 43.6607 148.85 43.7507C149.232 43.8407 149.632 43.9308 150.048 44.0208C150.476 44.0995 150.875 44.2177 151.246 44.3752C151.629 44.5215 151.938 44.7409 152.175 45.0335C152.411 45.3148 152.529 45.703 152.529 46.1981C152.529 46.817 152.355 47.3459 152.006 47.7847C151.668 48.2123 151.19 48.5386 150.571 48.7637C149.952 48.9887 149.238 49.1013 148.428 49.1013ZM158.817 49L161.18 37.1849H162.868L160.792 47.5315H167.206L166.919 49H158.817ZM171.609 49.1013C171.069 49.1013 170.602 48.9831 170.208 48.7468C169.825 48.5105 169.55 48.1729 169.381 47.7341C169.223 47.2952 169.201 46.7776 169.313 46.1812L170.934 38.0963H172.554L170.934 46.1475C170.855 46.6313 170.9 47.0196 171.069 47.3121C171.249 47.5934 171.581 47.7341 172.065 47.7341C172.29 47.7341 172.515 47.7003 172.74 47.6328C172.965 47.5541 173.167 47.4472 173.347 47.3121L173.685 48.5443C173.381 48.7581 173.044 48.9044 172.672 48.9831C172.312 49.0619 171.958 49.1013 171.609 49.1013ZM168.756 41.3877L169.01 40.0543H174.731L174.461 41.3877H168.756ZM179.162 49.1013C178.408 49.1013 177.733 48.9494 177.136 48.6455C176.54 48.3305 176.067 47.886 175.719 47.3121C175.381 46.7382 175.212 46.0462 175.212 45.236C175.212 44.4709 175.336 43.7676 175.584 43.1262C175.842 42.4848 176.197 41.9278 176.647 41.4552C177.108 40.9826 177.648 40.6169 178.267 40.3581C178.886 40.0993 179.556 39.9699 180.276 39.9699C181.052 39.9699 181.711 40.1049 182.251 40.375C182.791 40.645 183.207 41.0445 183.5 41.5734C183.792 42.091 183.939 42.7267 183.939 43.4807C183.939 44.3133 183.832 45.0729 183.618 45.7593C183.404 46.4457 183.083 47.0421 182.656 47.5484C182.239 48.0435 181.739 48.4261 181.154 48.6962C180.568 48.9662 179.904 49.1013 179.162 49.1013ZM179.516 47.6835C180.191 47.6835 180.793 47.5203 181.322 47.194C181.851 46.8677 182.262 46.4232 182.554 45.8606C182.858 45.2867 183.01 44.634 183.01 43.9026C183.01 43.1149 182.779 42.5017 182.318 42.0628C181.857 41.6127 181.199 41.3877 180.343 41.3877C179.679 41.3877 179.083 41.5508 178.554 41.8772C178.025 42.1922 177.609 42.6367 177.305 43.2106C177.001 43.7732 176.849 44.4259 176.849 45.1685C176.849 45.9449 177.08 46.5582 177.541 47.0083C178.003 47.4584 178.661 47.6835 179.516 47.6835ZM182.099 49L182.571 46.6876L183.095 44.6115L183.331 42.4848L184.529 36.476H186.15L183.652 49H182.099ZM187.258 49.1013C186.954 49.1013 186.695 49 186.481 48.7975C186.279 48.5837 186.177 48.3249 186.177 48.021C186.177 47.6497 186.295 47.3515 186.532 47.1265C186.768 46.9014 187.049 46.7889 187.376 46.7889C187.68 46.7889 187.933 46.8902 188.135 47.0927C188.338 47.2952 188.439 47.5597 188.439 47.886C188.439 48.1223 188.383 48.3361 188.27 48.5274C188.158 48.7074 188.011 48.8481 187.831 48.9494C187.663 49.0506 187.471 49.1013 187.258 49.1013Z" fill="#062B21"/>
<defs>
<clipPath id="clip0_5_129">
<rect width="61.1789" height="42.9165" fill="white" transform="translate(0 3)"/>
</clipPath>
</defs>
</svg>
